# xmcd
#
# Track frame offsets:
#	150
#	22391
#	37953
#	54444
#	69172
#	89825
#	107025
#	124420
#	150397
#	166563
#	181668
#	193767
#	205401
#	221749
#	232585
#	248006
#	262454
#	284065
#	301588
#	317598
#
# Disc length: 4564 seconds
#
# Revision: 1
# Processed by: cddbd v1.5.2PL0 Copyright (c) Steve Scherf et al.
# Submitted via: audiograbber 1.83.01
#
DISCID=1a11d214
DTITLE=Various Artist - De Topcollectie '70  CD4
DYEAR=2009
DGENRE=Oldies
TTITLE0=Ike and Tina Turner - Proud Mary
TTITLE1=Pointer Sisters - Fire
TTITLE2=Esther Phillips - What A Difference A Day Makes
TTITLE3=Gloria Gaynor - I Will Survive
TTITLE4=Baccara - Yes Sir, I Can Boogie
TTITLE5=Ottawan - D.I.S.C.O.
TTITLE6=Amanda Lear - Follow Me
TTITLE7=Dr. Buzzard's Original Sanannah Band - Cherchez La Femme
TTITLE8=Alexander Curly - I'll Never Drink Again
TTITLE9=Harpo - Moviestar
TTITLE10=Dolly Parton - Jolene
TTITLE11=Will Tura - M'n Airhostess
TTITLE12=Marianne Rosenberg - Ich Bin Wie Du
TTITLE13=Mouth and MacNeal - How Do You Do
TTITLE14=Dan Hartman - Instant Replay
TTITLE15=Gladys Knight and The Pips - Baby Don't Change Your Mind
TTITLE16=Kate Bush - Wuthering Heights
TTITLE17=XTC - Making Plans For Nigel
TTITLE18=Toto - Hold The Line
TTITLE19=Meat Loaf - Paradise By The Dashboard Light [Single Edit]
EXTD=
EXTT0=
EXTT1=
EXTT2=
EXTT3=
EXTT4=
EXTT5=
EXTT6=
EXTT7=
EXTT8=
EXTT9=
EXTT10=
EXTT11=
EXTT12=
EXTT13=
EXTT14=
EXTT15=
EXTT16=
EXTT17=
EXTT18=
EXTT19=
PLAYORDER=
